<svg width="9" height="13" viewBox="0 0 9 13" fill="none" xmlns="http://www.w3.org/2000/svg">
<path d="M7.93683 6.5C8.58805 5.9702 9 5.19553 9 4.33333C9 3.12343 8.18946 2.08551 7.04348 1.65601V0.722222C7.04348 0.323375 6.69311 0 6.26087 0C5.82862 0 5.47826 0.323375 5.47826 0.722222V1.44444H3.91304V0.722222C3.91304 0.323375 3.56268 0 3.13043 0C2.69819 0 2.34783 0.323375 2.34783 0.722222V1.44444L0.782609 1.44444C0.350364 1.44444 0 1.76782 0 2.16667C0 2.56551 0.350364 2.88889 0.782609 2.88889H1.56522L1.56522 6.5L1.56522 10.1111H0.782609C0.350364 10.1111 0 10.4345 0 10.8333C0 11.2322 0.350364 11.5556 0.782609 11.5556H2.34783L2.34783 12.2778C2.34783 12.6766 2.69819 13 3.13043 13C3.56268 13 3.91304 12.6766 3.91304 12.2778L3.91304 11.5556H5.47826V12.2778C5.47826 12.6766 5.82862 13 6.26087 13C6.69311 13 7.04348 12.6766 7.04348 12.2778V11.344C8.18946 10.9145 9 9.87657 9 8.66667C9 7.80447 8.58805 7.0298 7.93683 6.5ZM3.13043 2.88889L5.86957 2.88889C6.73264 2.88889 7.43478 3.53686 7.43478 4.33333C7.43478 5.12981 6.73264 5.77778 5.86957 5.77778H3.13043L3.13043 2.88889ZM5.86957 10.1111H3.13043V7.22222H5.86957C6.73264 7.22222 7.43478 7.87019 7.43478 8.66667C7.43478 9.46314 6.73264 10.1111 5.86957 10.1111Z" fill="#4F46BA"/>
</svg>
