<svg width="22" height="20" viewBox="0 0 22 20" fill="none" xmlns="http://www.w3.org/2000/svg">
<path d="M18.0336 1.1839V2.38774H16.8455V1.1839H13.7405V2.38774H12.5524V1.1839H9.44747V2.38774H8.25935V1.1839H5.1544V2.38774H3.96628V1.1839H0.861328V3.96117H21.1386V1.1839H18.0336Z" fill="white"/>
<path d="M17.4278 20L21.1384 16.2695H17.4278V20Z" fill="white"/>
<path d="M0.861328 20H16.2398V15.0814H21.1386V5.14932H0.861328V20ZM8.19341 14.5416H10.9117C11.6892 14.5416 12.3217 13.9172 12.3217 13.1497C12.3217 12.3822 11.6892 11.7578 10.9117 11.7578H8.26735V7.94461H13.1384V9.13273H9.45547V10.5696H10.9117C12.3443 10.5696 13.5098 11.7271 13.5098 13.1497C13.5098 14.5723 12.3443 15.7297 10.9117 15.7297H8.19341V14.5416Z" fill="white"/>
<path d="M16.8453 0H18.0335V1.18396H16.8453V0Z" fill="white"/>
<path d="M12.5526 0H13.7408V1.18396H12.5526V0Z" fill="white"/>
<path d="M8.25949 0H9.44761V1.18396H8.25949V0Z" fill="white"/>
<path d="M3.96609 0H5.15421V1.18396H3.96609V0Z" fill="white"/>
</svg>
