<svg width="57" height="57" viewBox="0 0 57 57" fill="none" xmlns="http://www.w3.org/2000/svg">
<rect width="57" height="57" rx="8" fill="url(#paint0_linear_1_400)"/>
<path d="M28.4232 26.1659H25.9709V38.1565H28.4232V26.1659Z" fill="white"/>
<path d="M30.6708 26.1857V28.4337H32.7353V35.1984C32.7353 36.1315 32.9918 36.8813 33.4845 37.4468C33.9774 38.0314 34.6347 38.321 35.463 38.3408C36.2849 38.36 37.0146 38.1765 37.6325 37.7956L37.6722 37.7758V37.7361L38.2571 35.4551L38.1126 35.547C37.4553 35.9484 36.8502 36.1455 36.2981 36.1455C35.5356 36.1455 35.1479 35.6915 35.1479 34.7978V28.4338H37.653V26.1858H35.1479V22.4383L32.7355 23.7337V26.1857H30.6708Z" fill="white"/>
<path d="M42.5369 26.1659H40.0652V38.1565H42.5369V26.1659Z" fill="white"/>
<path d="M24.564 28.0528L24.5115 28.0134C23.3807 26.6393 21.9676 25.9685 20.2714 25.9685C18.4968 25.9685 17.0368 26.5141 15.8671 27.5926C14.6245 28.7297 14 30.2611 14 32.1808C14 34.1001 14.6245 35.619 15.8671 36.7689C17.0176 37.8471 18.4969 38.3795 20.2714 38.3795C21.9675 38.3795 23.3939 37.7023 24.5115 36.3481L24.564 36.3087L23.177 34.6325L23.1244 34.6847C22.2241 35.579 21.2574 36.0393 20.2188 36.0393C19.134 36.0393 18.2403 35.671 17.5301 34.9413C16.8133 34.2248 16.472 33.2978 16.472 32.1808C16.472 31.063 16.8135 30.1299 17.5301 29.4002C18.2403 28.69 19.134 28.3217 20.2188 28.3217C21.2573 28.3217 22.224 28.7817 23.1244 29.676L23.177 29.7289L24.564 28.0528Z" fill="white"/>
<path d="M27.1804 24.1941C28.1468 23.2079 29.2251 22.4583 30.454 21.9257C31.637 21.4129 32.8997 21.163 34.2011 21.163C35.4965 21.163 36.7585 21.4129 37.9679 21.9257C39.1708 22.458 40.2493 23.2079 41.2157 24.1941L41.255 24.2265H44.0684L43.963 24.062C42.8455 22.4911 41.3995 21.2486 39.6637 20.3413C37.9285 19.441 36.1206 19 34.2007 19C32.3013 19 30.4669 19.441 28.7314 20.3413C26.9962 21.2486 25.55 22.4911 24.4391 24.062L24.327 24.2265H27.1605L27.1804 24.1941Z" fill="#EA2230"/>
<path d="M28.4232 26.1659H25.9709V38.1565H28.4232V26.1659Z" fill="white"/>
<path d="M30.6708 26.1857V28.4337H32.7353V35.1984C32.7353 36.1315 32.9918 36.8813 33.4845 37.4468C33.9774 38.0314 34.6347 38.321 35.463 38.3408C36.2849 38.36 37.0146 38.1765 37.6325 37.7956L37.6722 37.7758V37.7361L38.2571 35.4551L38.1126 35.547C37.4553 35.9484 36.8502 36.1455 36.2981 36.1455C35.5356 36.1455 35.1479 35.6915 35.1479 34.7978V28.4338H37.653V26.1858H35.1479V22.4383L32.7355 23.7337V26.1857H30.6708Z" fill="white"/>
<path d="M42.5369 26.1659H40.0652V38.1565H42.5369V26.1659Z" fill="white"/>
<path d="M24.564 28.0528L24.5115 28.0134C23.3807 26.6393 21.9676 25.9685 20.2714 25.9685C18.4968 25.9685 17.0368 26.5141 15.8671 27.5926C14.6245 28.7297 14 30.2611 14 32.1808C14 34.1001 14.6245 35.619 15.8671 36.7689C17.0176 37.8471 18.4969 38.3795 20.2714 38.3795C21.9675 38.3795 23.3939 37.7023 24.5115 36.3481L24.564 36.3087L23.177 34.6325L23.1244 34.6847C22.2241 35.579 21.2574 36.0393 20.2188 36.0393C19.134 36.0393 18.2403 35.671 17.5301 34.9413C16.8133 34.2248 16.472 33.2978 16.472 32.1808C16.472 31.063 16.8135 30.1299 17.5301 29.4002C18.2403 28.69 19.134 28.3217 20.2188 28.3217C21.2573 28.3217 22.224 28.7817 23.1244 29.676L23.177 29.7289L24.564 28.0528Z" fill="white"/>
<path d="M27.1804 24.1941C28.1468 23.2079 29.2251 22.4583 30.454 21.9257C31.637 21.4129 32.8997 21.163 34.2011 21.163C35.4965 21.163 36.7585 21.4129 37.9679 21.9257C39.1708 22.458 40.2493 23.2079 41.2157 24.1941L41.255 24.2265H44.0684L43.963 24.062C42.8455 22.4911 41.3995 21.2486 39.6637 20.3413C37.9285 19.441 36.1206 19 34.2007 19C32.3013 19 30.4669 19.441 28.7314 20.3413C26.9962 21.2486 25.55 22.4911 24.4391 24.062L24.327 24.2265H27.1605L27.1804 24.1941Z" fill="#E92F30"/>
<defs>
<linearGradient id="paint0_linear_1_400" x1="28.5" y1="0" x2="28.5" y2="57" gradientUnits="userSpaceOnUse">
<stop stop-color="#0075CD"/>
<stop offset="1" stop-color="#002B67"/>
</linearGradient>
</defs>
</svg>
