<svg width="28" height="28" viewBox="0 0 28 28" fill="none" xmlns="http://www.w3.org/2000/svg">
<path d="M14.5359 13.0154C14.9623 13.0154 15.3094 12.6684 15.3094 12.2419C15.3094 11.8154 14.9624 11.4685 14.5359 11.4685H13.4184V13.0154H14.5359Z" fill="white"/>
<path d="M13.4184 14.6564V16.5382H14.9572C15.476 16.5382 15.898 16.1161 15.898 15.5973C15.898 15.0786 15.476 14.6564 14.9572 14.6564H13.4184Z" fill="white"/>
<path d="M10.7932 18.1792V16.5382H11.7777V11.4685H10.7932V9.8275H13.1807V8.4321H9.41771L8.43251 9.41736V18.5825L9.41771 19.5677H13.1807V18.1792H10.7932Z" fill="white"/>
<path d="M14.8213 8.4321V9.84495C16.0185 9.98673 16.9502 11.0073 16.9502 12.242C16.9502 12.7318 16.8032 13.1878 16.5515 13.5688C17.1521 14.042 17.5389 14.7751 17.5389 15.5973C17.5389 17.0209 16.3807 18.1792 14.9571 18.1792H14.8213V19.5677H18.5825L19.5677 18.5825V9.41736L18.5825 8.43215H14.8213V8.4321Z" fill="white"/>
<path d="M27.9999 10.342V8.70104H24.5791V6.14069L21.8593 3.42084H19.2989V0H17.6579V3.42084H14.8204V0H13.1794V3.42084H10.342V0H8.70098V3.42084H6.14063L3.42078 6.14069V8.70104H0V10.342H3.42084V13.1795H0V14.8205H3.42084V17.6579H0V19.2989H3.42084V21.8593L6.14069 24.5792H8.70104V28H10.342V24.5792H13.1795V28H14.8205V24.5792H17.658V28H19.299V24.5792H21.8593L24.5792 21.8593V19.2989H28V17.6579H24.5792V14.8204H28V13.1794H24.5792V10.342H27.9999V10.342ZM21.2088 19.2623L19.2623 21.2088H8.73763L6.79118 19.2623V8.73763L8.73763 6.79113H19.2623L21.2087 8.73763V19.2623H21.2088Z" fill="white"/>
</svg>
