<svg width="20" height="18" viewBox="0 0 20 18" fill="none" xmlns="http://www.w3.org/2000/svg">
<path d="M19.9748 5.50583L18.8759 1.10769C18.7411 0.567334 18.2554 0.188477 17.698 0.188477H2.86067C2.30331 0.188477 1.8176 0.567334 1.6816 1.10769L0.582667 5.50583C0.570525 5.55319 0.564453 5.60298 0.564453 5.65276C0.564453 7.32605 1.85767 8.68848 3.44838 8.68848C4.37245 8.68848 5.19695 8.22826 5.72517 7.51426C6.25338 8.22826 7.07788 8.68848 8.00195 8.68848C8.92602 8.68848 9.75052 8.22826 10.2787 7.51426C10.807 8.22826 11.6302 8.68848 12.5555 8.68848C13.4808 8.68848 14.3041 8.22826 14.8323 7.51426C15.3605 8.22826 16.1838 8.68848 17.1091 8.68848C18.6998 8.68848 19.993 7.32605 19.993 5.65276C19.993 5.60298 19.987 5.55319 19.9748 5.50583Z" fill="#1B1D4E"/>
<path d="M17.1088 9.90275C16.2819 9.90275 15.4962 9.65018 14.832 9.18875C13.5036 10.1128 11.6069 10.1128 10.2784 9.18875C8.95001 10.1128 7.0533 10.1128 5.72487 9.18875C5.06066 9.65018 4.27501 9.90275 3.44809 9.90275C2.85187 9.90275 2.28966 9.76311 1.77844 9.52511V15.9742C1.77844 16.6445 2.32244 17.1885 2.99273 17.1885H7.84987V12.3313H12.707V17.1885H17.5642C18.2344 17.1885 18.7784 16.6445 18.7784 15.9742V9.52511C18.2672 9.76311 17.705 9.90275 17.1088 9.90275Z" fill="#1B1D4E"/>
</svg>
