<svg width="50" height="50" viewBox="0 0 50 50" fill="none" xmlns="http://www.w3.org/2000/svg">
<rect width="50" height="50" rx="10" fill="#F3F5FA"/>
<path d="M15.3145 36.4539C12.9387 34.4448 11.2464 31.7468 10.472 28.7333C9.69763 25.7198 9.8795 22.5401 10.9924 19.6346C12.1053 16.7291 14.0942 14.2415 16.6836 12.5165C19.273 10.7915 22.3347 9.91435 25.4447 10.0066C28.5547 10.0988 31.5591 11.1559 34.0417 13.0314C36.5243 14.9068 38.3622 17.5079 39.301 20.4743C40.2397 23.4407 40.2328 26.6255 39.2812 29.5878C38.3295 32.5501 36.4803 35.1431 33.9896 37.0078L30.7206 32.6413C32.3057 31.4547 33.4824 29.8046 34.088 27.9195C34.6936 26.0344 34.698 24.0077 34.1006 22.12C33.5032 20.2323 32.3336 18.5771 30.7538 17.3836C29.174 16.1901 27.2621 15.5174 25.283 15.4587C23.3039 15.4 21.3555 15.9582 19.7077 17.056C18.06 18.1537 16.7943 19.7367 16.0861 21.5857C15.3779 23.4346 15.2621 25.4581 15.7549 27.3757C16.2477 29.2934 17.3246 31.0104 18.8365 32.2888L15.3145 36.4539Z" fill="#F9896B"/>
<path d="M32.6781 23.1679C32.954 24.3245 32.9652 25.5284 32.7106 26.6899C32.4561 27.8514 31.9424 28.9403 31.208 29.8755C30.4736 30.8106 29.5375 31.5677 28.4694 32.0903C27.4014 32.6129 26.2291 32.8875 25.0401 32.8935C23.8511 32.8996 22.6761 32.6369 21.6028 32.1252C20.5295 31.6135 19.5857 30.8659 18.8419 29.9383C18.098 29.0107 17.5733 27.927 17.307 26.7682C17.0406 25.6093 17.0395 24.4053 17.3037 23.246L20.1024 23.8838C19.9342 24.6216 19.935 25.3878 20.1044 26.1252C20.2739 26.8626 20.6078 27.5522 21.0812 28.1425C21.5545 28.7328 22.1551 29.2086 22.8381 29.5342C23.5211 29.8599 24.2689 30.027 25.0255 30.0232C25.7822 30.0193 26.5282 29.8446 27.2078 29.512C27.8875 29.1795 28.4832 28.6976 28.9506 28.1026C29.4179 27.5075 29.7448 26.8145 29.9068 26.0754C30.0687 25.3363 30.0617 24.5701 29.886 23.8341L32.6781 23.1679Z" fill="#7947F7"/>
</svg>
