<svg width="16" height="16" viewBox="0 0 16 16" fill="none" xmlns="http://www.w3.org/2000/svg">
<path fill-rule="evenodd" clip-rule="evenodd" d="M2.15611 9.16183C2.15168 9.08789 2.14936 9.01134 2.14936 8.93187C2.14936 6.37416 4.14306 4.29448 6.63767 4.20577C6.69718 4.20577 6.76165 4.20577 6.82117 4.2107L6.22603 3.61932C6.22603 3.61932 8.62145 3.22014 11.6963 5.0682C11.6963 5.0682 11.7409 5.16183 11.6963 5.43781C11.6963 5.43781 13.1445 6.05876 13.2685 7.26616C13.3924 8.47356 12.6237 9.1635 12.0038 9.26206C12.0038 9.26206 12.3262 8.76432 11.8302 8.4982C11.7261 8.43906 11.6021 8.41442 11.4781 8.41935C10.5308 8.41935 10.4217 9.49369 10.4217 9.49369C10.4118 9.54789 10.4118 9.6021 10.4118 9.65631C10.4118 9.65631 10.2739 11.0224 12.537 11.1837C13.0373 10.5429 13.4902 9.82876 13.8902 9.0493C14.3086 8.23296 14.6425 7.3956 14.9011 6.57174C15.0567 6.07572 15.1664 5.64723 15.2377 5.30716C13.9196 4.22589 12.3641 3.29935 10.6918 2.52339C10.0656 2.23284 9.45784 1.98001 8.88321 1.76363C8.52781 1.62981 8.23756 1.52908 7.99632 1.45104C7.76181 1.52641 7.46419 1.6295 7.10779 1.76364C6.53382 1.97966 5.92581 2.23264 5.29951 2.52337C3.62877 3.29896 2.0736 4.22575 0.755143 5.30738C0.826295 5.65115 0.934858 6.07937 1.09028 6.57691C1.34795 7.4018 1.68224 8.24045 2.10291 9.05916C2.12054 9.09351 2.13827 9.12773 2.15611 9.16183ZM16 5.01947L15.9639 5.22269C15.9446 5.38073 15.8159 5.94659 15.6572 6.4884C15.3806 7.43253 15.0048 8.40832 14.5164 9.36144C13.8578 10.6455 13.0574 11.7661 12.1397 12.6879C11.0069 13.8236 9.69695 14.662 8.23616 15.1843L8.15481 15.2129L7.9999 15.2727L7.84622 15.2188L7.76076 15.1888C6.29687 14.6654 4.98276 13.8252 3.85782 12.6923C2.93585 11.7611 2.13694 10.6439 1.48151 9.36613C0.993597 8.41175 0.619165 7.43696 0.342696 6.49138C0.245728 6.15972 0.167869 5.8551 0.106835 5.58213C0.0702747 5.41862 0.0303394 5.2153 0.0375956 5.24414L0 5.03525L0.0870315 4.96207L0.151414 4.90793C1.49242 3.77904 3.07875 2.81059 4.79149 1.99691C5.93257 1.45481 6.97573 1.0523 7.7635 0.799627L7.9952 0.727264L8.15275 0.77423L8.23108 0.800088C9.01739 1.0523 10.0605 1.45481 11.2016 1.99691C12.9117 2.80932 14.4958 3.77602 15.8354 4.90265L16 5.01947ZM10.4713 5.54623C10.511 5.52651 10.6399 5.46245 10.7887 5.30968C11.0863 5.3491 11.3789 5.44274 11.3789 5.44274C10.8383 5.11748 10.0994 4.92528 9.28106 4.93021C9.28106 4.93021 9.5935 5.37374 10.4614 5.55608C10.4614 5.55608 10.4664 5.55116 10.4713 5.54623Z" fill="#4F46BA"/>
</svg>
