<svg width="19" height="17" viewBox="0 0 19 17" fill="none" xmlns="http://www.w3.org/2000/svg">
<path d="M17.9211 7.5528L9.89645 0.240769C9.54422 -0.0802273 9.01307 -0.0801923 8.66099 0.240734L0.63629 7.55284C0.354139 7.80994 0.260939 8.20608 0.398783 8.56201C0.536662 8.91794 0.872365 9.1479 1.25407 9.1479H2.53575V16.474C2.53575 16.7645 2.77127 17 3.06174 17H7.46025C7.75071 17 7.98623 16.7645 7.98623 16.474V12.0258H10.5713V16.4741C10.5713 16.7645 10.8068 17 11.0973 17H15.4956C15.7861 17 16.0216 16.7646 16.0216 16.4741V9.1479H17.3035C17.6852 9.1479 18.0209 8.9179 18.1588 8.56201C18.2965 8.20605 18.2033 7.80994 17.9211 7.5528Z" fill="#4F37FD"/>
</svg>
