<svg width="14" height="25" viewBox="0 0 14 25" fill="none" xmlns="http://www.w3.org/2000/svg">
<path d="M10.9927 0.789307H3.00722C1.59797 0.790905 0.455988 1.93289 0.45459 3.34214V22.2367C0.455988 23.6459 1.59797 24.7879 3.00722 24.7893H10.9927C12.402 24.7879 13.5439 23.6459 13.5455 22.2367V3.34214C13.5439 1.93289 12.402 0.790905 10.9927 0.789307V0.789307ZM7.00006 22.6076C6.39741 22.6076 5.90902 22.1192 5.90902 21.5166C5.90902 20.9141 6.39741 20.4257 7.00006 20.4257C7.60251 20.4257 8.09091 20.9141 8.09091 21.5166C8.09091 22.1192 7.60251 22.6076 7.00006 22.6076ZM8.63643 4.06204H5.36369C5.06247 4.06204 4.81817 3.81775 4.81817 3.51652C4.81817 3.21529 5.06247 2.9712 5.36369 2.9712H8.63643C8.93766 2.9712 9.18175 3.21529 9.18175 3.51652C9.18175 3.81775 8.93766 4.06204 8.63643 4.06204Z" fill="#4F46BA"/>
</svg>
