<svg width="21" height="17" viewBox="0 0 21 17" fill="none" xmlns="http://www.w3.org/2000/svg">
<path d="M19.2793 0.0767212C19.8316 0.0767212 20.2793 0.524436 20.2793 1.07672V15.0923C20.2793 15.6446 19.8316 16.0923 19.2793 16.0923H1.2793C0.727013 16.0923 0.279297 15.6446 0.279297 15.0923V1.07672C0.279297 0.524436 0.727013 0.0767212 1.2793 0.0767212H19.2793ZM8.91211 12.772C8.91211 13.0956 9.17444 13.358 9.49805 13.358H16.959C17.2826 13.358 17.5449 13.0956 17.5449 12.772C17.5449 12.4484 17.2826 12.1861 16.959 12.1861H9.49805C9.17444 12.1861 8.91211 12.4484 8.91211 12.772ZM8.91211 10.4283C8.91211 10.7519 9.17444 11.0142 9.49805 11.0142H16.959C17.2826 11.0142 17.5449 10.7519 17.5449 10.4283C17.5449 10.1047 17.2826 9.84235 16.959 9.84235H9.49805C9.17444 9.84235 8.91211 10.1047 8.91211 10.4283ZM8.91211 8.08453C8.91211 8.40814 9.17444 8.67047 9.49805 8.67047H16.959C17.2826 8.67047 17.5449 8.40814 17.5449 8.08453C17.5449 7.76093 17.2826 7.4986 16.959 7.4986H9.49805C9.17444 7.4986 8.91211 7.76093 8.91211 8.08453ZM8.91211 5.74078C8.91211 6.06439 9.17444 6.32672 9.49805 6.32672H16.959C17.2826 6.32672 17.5449 6.06439 17.5449 5.74078C17.5449 5.41718 17.2826 5.15485 16.959 5.15485H9.49805C9.17444 5.15485 8.91211 5.41718 8.91211 5.74078ZM3.01367 10.0142C3.01367 10.5665 3.46139 11.0142 4.01367 11.0142H6.70117C7.25346 11.0142 7.70117 10.5665 7.70117 10.0142V6.15485C7.70117 5.60256 7.25346 5.15485 6.70117 5.15485H4.01367C3.46139 5.15485 3.01367 5.60256 3.01367 6.15485V10.0142ZM1.45117 1.83453C1.45117 2.15814 1.7135 2.42047 2.03711 2.42047H18.5215C18.8451 2.42047 19.1074 2.15814 19.1074 1.83453C19.1074 1.51093 18.8451 1.2486 18.5215 1.2486H2.03711C1.7135 1.2486 1.45117 1.51093 1.45117 1.83453Z" fill="#1B1D4E"/>
</svg>
