<svg width="21" height="21" viewBox="0 0 21 21" fill="none" xmlns="http://www.w3.org/2000/svg">
<path d="M9.14568 10.604L8.56277 13.0192C9.31223 13.1858 11.6022 13.9353 11.9353 12.5612C12.2684 11.1454 9.89514 10.8122 9.14568 10.604Z" fill="#76B7FF"/>
<path d="M9.97819 7.31418L9.43692 9.52117C10.0615 9.68774 11.9767 10.3124 12.2682 9.06312C12.5596 7.77223 10.6027 7.48074 9.97819 7.31418Z" fill="#76B7FF"/>
<path d="M12.4347 0.776456C7.06366 -0.556067 1.65094 2.7336 0.318574 8.06369C-1.01379 13.4354 2.23384 18.8488 7.60493 20.1813C12.976 21.5139 18.3887 18.2658 19.7211 12.8941C21.0535 7.564 17.8058 2.15062 12.4347 0.776456ZM14.4333 9.06309C14.3084 10.0208 13.7671 10.5205 13.0177 10.6871C14.0169 11.1868 14.5166 11.978 14.0169 13.3521C13.434 15.0594 12.0184 15.1844 10.1447 14.8512L9.68675 16.6835L8.6042 16.3503L9.0622 14.5597C8.77075 14.4765 8.47929 14.3932 8.18784 14.3515L7.72984 16.1421L6.64729 15.8506L7.10529 14.0184C6.85548 13.9351 6.60566 13.8935 6.3142 13.8102L4.89857 13.4354L5.43984 12.1862L6.23093 12.3944C6.52239 12.4777 6.68893 12.2695 6.73057 12.1445L7.43838 9.27129C7.48002 9.27129 7.52166 9.27129 7.56329 9.31293C7.52166 9.31293 7.48002 9.27129 7.43838 9.27129L7.93802 7.23087C7.93802 6.98102 7.85475 6.68953 7.43838 6.60625L6.64729 6.39804L6.93875 5.23208L8.43766 5.60685C8.64584 5.6485 8.89566 5.73178 9.14547 5.77342L9.60347 3.98284L10.686 4.27433L10.228 6.02327C10.5195 6.10655 10.8109 6.14819 11.1024 6.23147L11.5187 4.48254L12.6013 4.77403L12.1433 6.56461C13.6006 7.02266 14.6415 7.73056 14.4333 9.06309Z" fill="#76B7FF"/>
</svg>
