<svg width="57" height="57" viewBox="0 0 57 57" fill="none" xmlns="http://www.w3.org/2000/svg">
<rect width="57" height="57" rx="8" fill="#FF0000"/>
<path d="M29 14C25.0218 14 21.2064 15.5804 18.3934 18.3934C15.5804 21.2064 14 25.0218 14 29C14 32.9782 15.5804 36.7936 18.3934 39.6066C21.2064 42.4196 25.0218 44 29 44C32.9782 44 36.7936 42.4196 39.6066 39.6066C42.4196 36.7936 44 32.9782 44 29C44 25.0218 42.4196 21.2064 39.6066 18.3934C36.7936 15.5804 32.9782 14 29 14V14ZM34.3125 15.4C34.7125 15.4 35.125 15.4375 35.3875 15.525C32.675 16.0875 30.5125 18.6125 30.525 21.5C30.525 21.5625 30.525 21.6375 30.5375 21.7125C35.0875 22.825 37.125 25.5625 37.125 29.35C37.175 33.1375 34.175 37.3 29.1125 37.3125C25.025 37.325 20.7625 33.825 20.7375 28.2125C20.725 24.5 22.75 20.925 25.3 18.8125C27.8 16.7375 31.2125 15.4125 34.3125 15.4Z" fill="white"/>
</svg>
