<svg width="21" height="18" viewBox="0 0 21 18" fill="none" xmlns="http://www.w3.org/2000/svg">
<path d="M15.0233 6.1518H20.5582V3.58203C20.5582 1.94705 19.228 0.616913 17.5931 0.616913H2.96511C1.33014 0.616913 0 1.94705 0 3.58203V14.6518C0 16.2868 1.33014 17.6169 2.96511 17.6169H17.5931C19.228 17.6169 20.5582 16.2868 20.5582 14.6518V12.082H15.0233C13.3883 12.082 12.0582 10.7519 12.0582 9.11691C12.0582 7.48194 13.3883 6.1518 15.0233 6.1518Z" fill="#1B1D4E"/>
<path d="M15.0232 7.33786C14.0423 7.33786 13.2441 8.13593 13.2441 9.11694C13.2441 10.098 14.0422 10.896 15.0232 10.896H20.5581V7.3379H15.0232V7.33786ZM15.8139 9.70996H15.0232C14.6957 9.70996 14.4302 9.44443 14.4302 9.11694C14.4302 8.78946 14.6957 8.52393 15.0232 8.52393H15.8139C16.1414 8.52393 16.4069 8.78946 16.4069 9.11694C16.4069 9.44443 16.1414 9.70996 15.8139 9.70996Z" fill="#1B1D4E"/>
</svg>
