<svg width="14" height="15" viewBox="0 0 14 15" fill="none" xmlns="http://www.w3.org/2000/svg">
<path d="M11.9705 9.15391C11.4529 8.8477 10.8699 8.75895 10.2924 8.73829C9.80793 8.72096 9.0851 8.40291 9.0851 7.50004C9.0851 6.82735 9.61742 6.28596 10.2927 6.26181C10.8701 6.24115 11.453 6.15229 11.9705 5.84618C13.2558 5.08601 13.8228 3.49024 13.3152 2.06159C12.8076 0.63294 11.3719 -0.216133 9.9104 0.0479038C8.44886 0.31194 7.38335 1.61286 7.3834 3.1332C7.3834 3.74018 7.59413 4.29875 7.86303 4.81681C8.08918 5.25253 8.2036 6.06124 7.42796 6.51998C6.85097 6.86124 6.13087 6.64516 5.7712 6.05546C5.46738 5.55739 5.10062 5.09071 4.58714 4.78696C3.3019 4.02679 1.6694 4.32167 0.715459 5.48631C-0.238486 6.65094 -0.238486 8.3491 0.715459 9.51374C1.6694 10.6784 3.3019 10.9732 4.58714 10.2131C5.10048 9.90944 5.46727 9.44307 5.77089 8.9453C6.02022 8.53655 6.64291 8.01552 7.42793 8.48017C8.00404 8.82116 8.18214 9.56827 7.86276 10.1837C7.59391 10.7016 7.38344 11.2601 7.38344 11.867C7.38344 13.3873 8.44897 14.6881 9.91047 14.9521C11.372 15.2161 12.8076 14.367 13.3151 12.9384C13.8227 11.5098 13.2558 9.91407 11.9705 9.15391Z" fill="#4F46BA"/>
</svg>
