<svg width="9" height="16" viewBox="0 0 9 16" fill="none" xmlns="http://www.w3.org/2000/svg">
<path fill-rule="evenodd" clip-rule="evenodd" d="M3.1792 2.13556C3.1792 1.38622 3.1792 0.711556 3.1792 0C4.02769 0 4.8528 0 5.73702 0C5.73702 0.687111 5.73702 1.37378 5.73702 2.11067C6.78881 2.11067 7.76873 2.11067 8.84434 2.11067C8.73716 3.13467 9.08379 4.12133 8.34289 5.07111C6.8845 6.94444 5.53372 8.91778 4.1353 10.8542C4.12339 10.8787 4.12339 10.916 4.11148 11.0164C5.73702 11.0164 7.36255 11.0164 9 11.0164C9 12.0156 9 12.9396 9 13.9267C7.92396 13.9267 6.8726 13.9267 5.76083 13.9267C5.76083 14.6511 5.76083 15.3129 5.76083 16C4.88852 16 4.08766 16 3.21492 16C3.21492 15.3382 3.21492 14.6756 3.21492 13.964C2.1274 13.964 1.09985 13.964 0 13.964C0.0595435 12.9147 -0.19139 11.9529 0.561835 11.0164C2.05595 9.14267 3.41822 7.15644 4.82855 5.22089C4.8528 5.18356 4.86428 5.13333 4.90043 5.03333C3.39441 5.03333 1.9122 5.03333 0.406172 5.03333C0.406172 4.05956 0.406172 3.13467 0.406172 2.16044C1.31464 2.13556 2.21119 2.13556 3.1792 2.13556Z" fill="#4F46BA"/>
</svg>
